<svg width="60" height="60" viewBox="0 0 60 60" fill="none" xmlns="http://www.w3.org/2000/svg">
<path d="M47.4074 52.963C47.1111 49.1111 45.8025 47.1605 45.1852 46.6667C49.6296 46.6667 53.7037 46.6667 57.037 50C59.7037 52.6667 59.8765 57.7778 59.6296 60H52.963C50.7407 60 47.7778 57.7778 47.4074 52.963Z" fill="#DC4B57"/>
<path d="M12.5926 52.963C12.8889 49.1111 14.1975 47.1605 14.8148 46.6667C10.3704 46.6667 6.2963 46.6667 2.96297 50C0.2963 52.6667 0.123461 57.7778 0.370375 60H7.03704C9.25926 60 12.2222 57.7778 12.5926 52.963Z" fill="#DC4B57"/>
<path d="M47.4074 7.03704C47.1111 10.8889 45.8025 12.8395 45.1852 13.3333C49.6296 13.3333 53.7037 13.3333 57.037 10C59.7037 7.33334 59.8765 2.22223 59.6296 7.62939e-06H52.963C50.7407 7.62939e-06 47.7778 2.22223 47.4074 7.03704Z" fill="#DC4B57"/>
<path d="M12.5926 7.03704C12.8889 10.8889 14.1975 12.8395 14.8148 13.3333C10.3704 13.3333 6.2963 13.3333 2.96297 10C0.2963 7.33334 0.123461 2.22223 0.370375 7.62939e-06H7.03704C9.25926 7.62939e-06 12.2222 2.22223 12.5926 7.03704Z" fill="#DC4B57"/>
<rect x="21.4815" width="17.037" height="60" fill="#228F58"/>
<rect x="60" y="21.4815" width="17.037" height="60" transform="rotate(90 60 21.4815)" fill="#228F58"/>
<circle cx="30" cy="30" r="6.66667" fill="#DC4B57"/>
</svg>
